<?xml version="1.0" standalone="no"?>
<!DOCTYPE svg PUBLIC "-//W3C//DTD SVG 1.1//EN" "http://www.w3.org/Graphics/SVG/1.1/DTD/svg11.dtd">
<svg width="100%" height="100%" viewBox="0 0 460 418" version="1.1" xmlns="http://www.w3.org/2000/svg" xmlns:xlink="http://www.w3.org/1999/xlink" xml:space="preserve" style="fill-rule:evenodd;clip-rule:evenodd;stroke-linejoin:round;stroke-miterlimit:1.41421;">
    <g transform="matrix(1,0,0,1,-0,-21.231)">
        <path d="M17,55.231L65.733,55.231L135.15,306.264C137.133,313.631 143.933,318.731 151.583,318.731L364.933,318.731C371.733,318.731 377.683,314.764 380.516,308.531L458.149,130.031C460.416,124.648 459.849,118.698 456.732,113.881C453.615,109.064 448.232,106.231 442.565,106.231L206.833,106.231C197.483,106.231 189.833,113.881 189.833,123.231C189.833,132.581 197.483,140.231 206.833,140.231L416.5,140.231L353.6,284.731L164.333,284.731L94.917,33.698C92.934,26.331 86.134,21.231 78.484,21.231L17,21.231C7.65,21.231 0,28.881 0,38.231C0,47.581 7.65,55.231 17,55.231Z" style="fill:rgb(255,104,0);fill-opacity:0.682353;fill-rule:nonzero;"/>
        <path d="M135.433,438.298C156.683,438.298 173.966,421.015 173.966,399.765C173.966,378.515 156.683,361.232 135.433,361.232C114.183,361.232 96.9,378.514 96.9,399.764C96.9,421.014 114.183,438.298 135.433,438.298Z" style="fill:rgb(255,104,0);fill-opacity:0.682353;fill-rule:nonzero;"/>
        <path d="M376.267,438.298C377.117,438.298 378.25,438.298 379.1,438.298C389.3,437.448 398.65,432.915 405.45,424.981C412.25,417.331 415.367,407.414 414.8,396.931C413.383,375.964 394.967,359.814 373.717,361.231C352.467,362.648 336.6,381.348 338.017,402.314C339.433,422.431 356.15,438.298 376.267,438.298Z" style="fill:rgb(255,104,0);fill-opacity:0.682353;fill-rule:nonzero;"/>
    </g>
</svg>
