<?xml version="1.0" encoding="utf-8"?>
<!-- Generator: Adobe Illustrator 19.0.0, SVG Export Plug-In . SVG Version: 6.00 Build 0)  -->
<svg version="1.1" id="Capa_1" xmlns="http://www.w3.org/2000/svg" xmlns:xlink="http://www.w3.org/1999/xlink" x="0px" y="0px"
	 viewBox="-232 110.2 376.1 376.1" style="enable-background:new -232 110.2 376.1 376.1;" xml:space="preserve">
<style type="text/css">
	.st0{fill:#DF3626;}
</style>
<g>
	<path class="st0" d="M108.8,406.3c-0.2,0-20.7,4.7-47-1.5c-35.4-8.4-63.2-31.6-82.7-69.1C-55,270.4-76.3,192.4-120,200.4
		c-2.2-7.4-4.3-23.4,7.8-44.7c1.1-1.9,1.3-4.1,0.6-6.1c-0.7-2-2.2-3.7-4.2-4.5c-22.7-9.4-27.2-6.7-29.4-5.5
		c-1.2,0.7-2.2,1.6-2.9,2.7c-18.7,28.7-8.4,63.2-3.8,75.5c-27.2,36.4,25.3,113,89.7,178.6c3.3,3.7,46.5,50.8,101.4,53.3
		c18.8,0.9,36.6-3.6,53.4-13.3c8-4.6,15.7-10.4,23.1-17.4c2.5-2.3,3.1-6,1.5-9C115.5,407,112.1,405.5,108.8,406.3z M-137.9,224.4
		c2.1-2.2,2.7-5.6,1.4-8.4c-0.2-0.4-16.1-34.9-1-62.4c2,0.5,5,1.3,8.2,2.4c-15,32.7-2.7,55.1-2.1,56.1c1.6,2.7,4.7,4.2,7.8,3.7
		c11.9-2,21.8,0.9,29.4,8.5c2.3,2.3,4,4.7,5.3,6.8c-0.9,0.4-1.7,0.9-2.6,1.4c-11.8,6.8-16.7,16.1-18.3,24.5
		c-9.3-2.9-20.3-1.2-32,5.3C-145.4,253.1-149.4,236.6-137.9,224.4z M40,434.7c-49.6-2.2-90.7-47.9-91.1-48.4
		c-0.1-0.1-0.2-0.2-0.3-0.3c-52.4-53.3-76.4-95.5-83.8-110.2c8.4-4.9,20.1-8.8,28.1,0.4c2.4,2.7,6.3,3.4,9.4,1.6c0,0,0.1,0,0.1-0.1
		c3.1-1.9,4.4-5.7,3.2-9.1c-5.4-15.3,11.4-23.7,11.9-23.9c6.1,13.4,21.5,46.4,48.4,97.8c27,51.7,65.2,70.2,92.6,76.7
		c10.1,2.4,19.5,3.4,27.5,3.6C71.5,431.5,56,435.5,40,434.7z"/>
</g>
</svg>
